<svg width="24" height="24" viewBox="0 0 24 24" fill="none" xmlns="http://www.w3.org/2000/svg">
<path fill-rule="evenodd" clip-rule="evenodd" d="M5.58533 6.99969L9.87822 2.70681C11.0498 1.53523 12.9493 1.53523 14.1209 2.7068L18.4138 6.99969H20.8465C21.4551 6.99969 21.9225 7.53868 21.8365 8.14112L20.3675 18.424C20.1563 19.9019 18.8906 20.9997 17.3976 20.9997H6.60141C5.10846 20.9997 3.8427 19.9019 3.63156 18.424L2.16258 8.14111C2.07652 7.53868 2.54398 6.99969 3.15253 6.99969H5.58533ZM11.2924 4.12102C11.683 3.73049 12.3161 3.73049 12.7066 4.12102L15.5853 6.9997L8.41376 6.99969L11.2924 4.12102ZM4.30554 8.99969L5.61146 18.1411C5.68184 18.6338 6.10376 18.9997 6.60141 18.9997H17.3976C17.8953 18.9997 18.3172 18.6338 18.3876 18.1411L19.6935 8.99969H4.30554Z" fill="#6F767E"/>
<path fill-rule="evenodd" clip-rule="evenodd" d="M8 11C8.55228 11 9 11.4477 9 12V16C9 16.5523 8.55228 17 8 17C7.44772 17 7 16.5523 7 16V12C7 11.4477 7.44772 11 8 11Z" fill="#6F767E"/>
<path fill-rule="evenodd" clip-rule="evenodd" d="M12 11C12.5523 11 13 11.4477 13 12V16C13 16.5523 12.5523 17 12 17C11.4477 17 11 16.5523 11 16V12C11 11.4477 11.4477 11 12 11Z" fill="#6F767E"/>
<path fill-rule="evenodd" clip-rule="evenodd" d="M16 11C16.5523 11 17 11.4477 17 12V16C17 16.5523 16.5523 17 16 17C15.4477 17 15 16.5523 15 16V12C15 11.4477 15.4477 11 16 11Z" fill="#6F767E"/>
</svg>
