<svg width="14" height="14" viewBox="0 0 14 14" fill="none" xmlns="http://www.w3.org/2000/svg">
<path d="M1.7072 0.292893C1.31668 -0.097631 0.683511 -0.0976311 0.292987 0.292893C-0.0975378 0.683417 -0.0975381 1.31658 0.292986 1.70711L5.58583 6.99996L0.292893 12.2929C-0.0976311 12.6834 -0.0976311 13.3166 0.292893 13.7071C0.683418 14.0976 1.31658 14.0976 1.70711 13.7071L7.00005 8.41417L12.293 13.7071C12.6835 14.0976 13.3167 14.0976 13.7072 13.7071C14.0977 13.3166 14.0977 12.6834 13.7072 12.2929L8.41426 6.99996L13.7071 1.70711C14.0976 1.31658 14.0976 0.683419 13.7071 0.292895C13.3166 -0.0976298 12.6834 -0.0976294 12.2929 0.292895L7.00005 5.58574L1.7072 0.292893Z" fill="#F7860B"/>
</svg>
