<svg width="18" height="18" viewBox="0 0 18 18" fill="#1A1D1F" xmlns="http://www.w3.org/2000/svg">
<path fill-rule="evenodd"  clip-rule="evenodd" d="M0 3.5C0 1.567 1.567 0 3.5 0C5.433 0 7 1.567 7 3.5V5H11V3.5C11 1.567 12.567 0 14.5 0C16.433 0 18 1.567 18 3.5C18 5.433 16.433 7 14.5 7H13V11H14.5C16.433 11 18 12.567 18 14.5C18 16.433 16.433 18 14.5 18C12.567 18 11 16.433 11 14.5V13H7V14.5C7 16.433 5.433 18 3.5 18C1.567 18 0 16.433 0 14.5C0 12.567 1.567 11 3.5 11H5V7H3.5C1.567 7 0 5.433 0 3.5ZM5 5V3.5C5 2.67157 4.32843 2 3.5 2C2.67157 2 2 2.67157 2 3.5C2 4.32843 2.67157 5 3.5 5H5ZM7 7V11H11V7H7ZM5 13H3.5C2.67157 13 2 13.6716 2 14.5C2 15.3284 2.67157 16 3.5 16C4.32843 16 5 15.3284 5 14.5V13ZM13 13V14.5C13 15.3284 13.6716 16 14.5 16C15.3284 16 16 15.3284 16 14.5C16 13.6716 15.3284 13 14.5 13H13ZM13 5H14.5C15.3284 5 16 4.32843 16 3.5C16 2.67157 15.3284 2 14.5 2C13.6716 2 13 2.67157 13 3.5V5Z" fill="#1A1D1F"/>
</svg>
