<svg width="20" height="20" viewBox="0 0 20 20" fill="none" xmlns="http://www.w3.org/2000/svg">
<path fill-rule="evenodd" clip-rule="evenodd" d="M9.60706 2L8.67373 4H11.3263L10.3929 2H9.60706ZM7.4 2L6.46667 4H2.82843L4.53553 2.29289C4.72307 2.10536 4.97742 2 5.24264 2H7.4ZM0.0146541 4.82847C0.0784224 4.22172 0.348246 3.65175 0.783612 3.21639L3.12132 0.878679C3.68393 0.31607 4.44699 0 5.24264 0H14.7574C15.553 0 16.3161 0.316071 16.8787 0.87868L19.2164 3.21639C19.6518 3.65176 19.9216 4.22172 19.9853 4.82847C19.995 4.88421 20 4.94152 20 5V17C20 18.6569 18.6569 20 17 20H3C1.34315 20 0 18.6569 0 17V5C0 4.94152 0.00502053 4.8842 0.0146541 4.82847ZM2 6V17C2 17.5523 2.44772 18 3 18H17C17.5523 18 18 17.5523 18 17V6H14V9C14 10.6569 12.6569 12 11 12H9C7.34315 12 6 10.6569 6 9V6H2ZM8 6V9C8 9.55228 8.44772 10 9 10H11C11.5523 10 12 9.55229 12 9V6H8ZM17.1716 4L15.4645 2.29289C15.2769 2.10536 15.0226 2 14.7574 2H12.6L13.5333 4H17.1716Z" fill="#6F767E"/>
</svg>
