<svg width="42" height="42" viewBox="0 0 42 42" fill="none" xmlns="http://www.w3.org/2000/svg">
<path fill-rule="evenodd" clip-rule="evenodd" d="M11.5885 3.24572C8.07917 5.03165 5.20834 6.62181 5.20834 6.78087C5.20834 6.93941 9.19271 9.09294 14.0625 11.5662L22.9167 16.0632V20.7203V25.378L20.4479 26.6591L17.9797 27.9406L13.4167 25.6004L8.85417 23.2596V27.7869C8.85417 30.2766 8.72761 32.3142 8.57292 32.3142C8.41823 32.3142 7.36355 31.8306 6.22917 31.2396L4.16667 30.1644V23.2596C4.16667 18.9408 4.3646 16.3542 4.69533 16.3542C4.98647 16.3542 8.03334 17.7922 11.4662 19.5505L17.7083 22.7462V20.6171V18.4881L8.85417 13.9602L0 9.43237V20.8693V32.3068L6.77084 35.7722L13.5417 39.2377V34.7119C13.5417 32.2227 13.7172 30.1963 13.9323 30.2086C14.1474 30.2208 15.1385 30.6746 16.1354 31.2162L17.9479 32.202L22.5156 29.859L27.0833 27.5156V20.7214V13.9278L20.3125 10.5022C16.5886 8.6184 13.5417 6.93409 13.5417 6.76013C13.5417 6.32016 17.0552 4.65021 17.9812 4.65021C18.3979 4.65021 21.6713 6.14193 25.2552 7.9651L31.7708 11.2805V20.7294V30.1788L25 33.6442L18.2292 37.1097V39.2371V41.3641L27.0833 36.8362L35.9375 32.3084V20.7331V9.15784L26.9531 4.57892L17.9688 0L11.5885 3.24572Z" fill="#F7860B"/>
</svg>
