<?xml version="1.0" encoding="UTF-8"?>
<svg id="Layer_2" data-name="Layer 2" xmlns="http://www.w3.org/2000/svg" viewBox="0 0 757.47 211.77">
  <defs>
    <style>
      .cls-1 {
        letter-spacing: -.07em;
      }

      .cls-2 {
        fill: #eda1f9;
      }

      .cls-3 {
        fill: #c27fde;
      }

      .cls-4 {
        fill: #252527;
      }

      .cls-5 {
        fill: #6ce69d;
      }

      .cls-6 {
        fill: #7b4fee;
      }

      .cls-7 {
        letter-spacing: -.02em;
      }

      .cls-8 {
        fill: #231f20;
        font-family: LuxoraGrotesk-Medium, 'Luxora Grotesk';
        font-size: 40px;
        font-weight: 500;
      }
    </style>
  </defs>
  <g id="Layer_1-2" data-name="Layer 1">
    <g>
      <text class="cls-8" transform="translate(204.33 203)"><tspan x="0" y="0">del</tspan><tspan class="cls-7" x="58.28" y="0">i</tspan><tspan class="cls-1" x="65.57" y="0">v</tspan><tspan x="87.46" y="0">er </tspan><tspan class="cls-1" x="137.05" y="0">y</tspan><tspan x="159.69" y="0">our </tspan><tspan class="cls-7" x="230.53" y="0">bes</tspan><tspan x="298.67" y="0">t </tspan><tspan class="cls-7" x="325.18" y="0">ec</tspan><tspan x="372.48" y="0">om</tspan><tspan class="cls-7" x="431.05" y="0">m</tspan><tspan x="463.5" y="0">e</tspan><tspan class="cls-1" x="488.65" y="0">r</tspan><tspan class="cls-7" x="500.66" y="0">c</tspan><tspan x="523.79" y="0">e</tspan></text>
      <g>
        <path class="cls-4" d="m224.24,137.5h-19.92V24.34h41.27c24.44,0,40.89,14.64,40.89,36.06s-16.45,35.99-40.89,35.99h-21.35v41.11Zm0-95.81v37.19h21.35c12.67,0,20.52-7.54,20.52-18.63s-7.92-18.56-20.52-18.56h-21.35Z"/>
        <path class="cls-4" d="m292.52,113.06c0-14.64,13.5-22.41,27.46-25.5l23.69-5.28c-.6-7.02-7.24-10.71-15.46-10.71s-13.8,2.49-13.96,9.88c0,.38.07.83.07,1.21l.08,1.36-19.16.23v-2.72c0-13.88,8.15-23.39,23.84-26.33,2.94-.6,5.96-.98,9.05-.98,19.69,0,33.95,11.24,33.95,29.04v54.24h-18.41v-4.98c-5.66,4.15-12.82,6.71-20.29,6.71-17.58,0-30.85-10.26-30.85-26.18Zm51.15-12.07v-2.41l-19.09,4.3c-6.26,1.43-12.97,4.83-12.97,10.26,0,5.88,5.05,8.83,11.77,8.83,12.9,0,20.29-10.03,20.29-20.97Z"/>
        <path class="cls-4" d="m378.9,114.19c-2.34-5.58-3.32-11.54-3.32-17.5s.98-11.92,3.32-17.58c5.96-14.71,20.07-25.2,38.47-25.2,13.13,0,24.59,5.43,32.21,14.71,1.43,1.74,2.56,3.55,3.77,5.36l1.36,2.11-16.52,9.81-.75-1.43c-3.92-7.54-10.64-13.05-20.07-13.05-15.16,0-22.33,12.75-22.33,25.27s7.24,25.12,22.33,25.12c9.2,0,16.52-5.51,20.07-12.98l.75-1.51,16.52,9.88-1.36,2.11c-1.21,1.81-2.34,3.62-3.77,5.28-7.62,9.28-19.09,14.71-32.21,14.71-18.41,0-32.44-10.41-38.47-25.12Z"/>
        <path class="cls-4" d="m487.01,137.5h-18.33V25.1h18.33v62.92l30.71-32.06h23.16l-31.91,33.8,30.1,47.75h-21.5l-21.35-34.25-9.21,9.81v24.44Z"/>
        <path class="cls-4" d="m572.79,48.03h-18.33v-22.93h18.33v22.93Zm0,89.47h-18.33V55.95h18.33v81.55Z"/>
        <path class="cls-4" d="m624.24,168.51h-20.14l14.26-35.46-31.99-77.1h20.82l21.8,52.66,21.65-52.66h20.82l-47.22,112.56Z"/>
        <path class="cls-4" d="m677.28,114.49c-2.41-5.66-3.47-11.77-3.47-17.8,0-21.42,14.56-42.77,41.79-42.77,18.79,0,32.89,10.79,38.78,25.88,2.11,5.43,3.09,11.17,3.09,16.9,0,6.04-1.06,12.15-3.47,17.8-6.11,14.56-20.14,24.82-38.4,24.82s-32.21-10.18-38.32-24.82Zm60.65-17.8c0-12.52-7.24-25.27-22.33-25.27s-22.33,12.75-22.33,25.27,7.24,25.12,22.33,25.12,22.33-12.67,22.33-25.12Z"/>
      </g>
      <g>
        <polygon class="cls-6" points="144.8 125.4 108.6 146.3 93.54 155 93.54 95.79 108.6 104.49 144.8 125.4"/>
        <polygon class="cls-3" points="72.4 0 72.4 83.6 36.2 104.49 0 125.4 0 41.81 36.2 20.9 72.4 0"/>
        <polygon class="cls-5" points="72.4 107.99 72.4 167.19 0 209 0 149.79 72.4 107.99"/>
        <polygon class="cls-2" points="144.8 41.81 144.8 125.4 108.6 104.49 93.54 95.8 93.54 95.79 93.52 95.79 86.77 91.89 72.4 83.6 72.4 0 108.6 20.9 144.8 41.81"/>
      </g>
    </g>
  </g>
</svg>