<svg width="20" height="18" viewBox="0 0 20 18" fill="none" xmlns="http://www.w3.org/2000/svg">
<path fill-rule="evenodd" clip-rule="evenodd" d="M20 10.1468C20 10.0976 19.9964 10.0485 19.9892 10C19.9821 9.95251 19.9717 9.90553 19.9578 9.85942L17.6414 2.13796C17.2607 0.869004 16.0927 0 14.7679 0H5.23209C3.90727 0 2.7393 0.869004 2.35861 2.13796L0.0421737 9.85942C0.0283417 9.90553 0.0178754 9.95251 0.0108291 10C0.00362905 10.0485 0 10.0976 0 10.1468V15C0 16.6569 1.34315 18 3 18H17C18.6569 18 20 16.6569 20 15V10.1468ZM14.7679 2H5.23209C4.79048 2 4.40116 2.28967 4.27427 2.71265L2.08806 10H6.38197C6.76074 10 7.107 10.214 7.27639 10.5528L7.99724 11.9945C7.99893 11.9979 8.00239 12 8.00618 12H11.9938C11.9976 12 12.0011 11.9979 12.0028 11.9945L12.7236 10.5528C12.893 10.214 13.2393 10 13.618 10H17.9119L15.7257 2.71265C15.5988 2.28967 15.2095 2 14.7679 2ZM18 12H14.2361L13.7916 12.8889C13.4511 13.5698 12.7552 14 11.9938 14H8.00618C7.24487 14 6.54887 13.5699 6.20838 12.8889L5.76393 12H2V15C2 15.5523 2.44772 16 3 16H17C17.5523 16 18 15.5523 18 15V12Z" fill="#6F767E"/>
</svg>
