<svg width="21" height="10" viewBox="0 0 21 10" fill="none" xmlns="http://www.w3.org/2000/svg">
<path d="M18.1421 7.74243C17.0573 3.69396 12.896 1.29142 8.8475 2.3762C6.5746 2.98523 4.85067 4.55694 3.95652 6.54921L5.41096 6.15492C5.944 6.01042 6.49326 6.32539 6.63777 6.85844C6.78227 7.39148 6.4673 7.94074 5.93425 8.08525L2.76387 8.94471C2.72849 8.95647 2.69235 8.96629 2.65559 8.97406L2.24989 9.08405C1.99342 9.15357 1.71983 9.11817 1.48951 8.98564C1.25919 8.85312 1.09109 8.63437 1.02232 8.3777L0.0343223 4.69045C-0.108619 4.15698 0.207963 3.60864 0.741429 3.4657C1.2749 3.32276 1.82323 3.63934 1.96617 4.17281L2.29261 5.3911C3.45974 3.03979 5.57241 1.18321 8.32987 0.444351C13.4453 -0.926316 18.7033 2.10939 20.0739 7.22479C20.2169 7.75826 19.9003 8.30659 19.3668 8.44953C18.8334 8.59248 18.285 8.27589 18.1421 7.74243Z" fill="#6F767E"/>
</svg>
